<svg xmlns="http://www.w3.org/2000/svg" viewBox="0 0 841.9000244140625 595.2999877929688" width="100%" height="100%"  xmlns:xlink="http://www.w3.org/1999/xlink"><rect id="svgEditorBackground" x="0" y="0" width="841.9000244140625" height="595.2999877929688" style="fill:none;stroke:none;"/>
    <g fill="#1f66b6">
        <path d="M666.3,296.5c0,-32.5,-40.700000000000045,-63.30000000000001,-103.10000000000002,-82.4c14.399999999999977,-63.599999999999994,8,-114.2,-20.200000000000045,-130.4c-6.5,-3.799999999999997,-14.100000000000023,-5.599999999999994,-22.399999999999977,-5.599999999999994v22.299999999999997c4.600000000000023,0,8.299999999999955,0.9000000000000057,11.399999999999977,2.5999999999999943c13.600000000000023,7.799999999999997,19.5,37.500000000000014,14.899999999999977,75.7c-1.1000000000000227,9.400000000000006,-2.8999999999999773,19.30000000000001,-5.100000000000023,29.400000000000006c-19.600000000000023,-4.800000000000011,-41,-8.5,-63.5,-10.900000000000006c-13.5,-18.5,-27.5,-35.30000000000001,-41.60000000000002,-50c32.60000000000002,-30.299999999999997,63.19999999999999,-46.900000000000006,84,-46.900000000000006v-22.299999999999983c-27.5,0,-63.5,19.599999999999994,-99.89999999999998,53.599999999999994c-36.39999999999998,-33.8,-72.39999999999998,-53.2,-99.89999999999998,-53.2v22.299999999999997c20.69999999999999,0,51.39999999999998,16.5,84,46.599999999999994c-14,14.699999999999989,-28,31.400000000000006,-41.30000000000001,49.900000000000006c-22.600000000000023,2.4000000000000057,-44,6.099999999999994,-63.60000000000002,11c-2.3000000000000114,-10,-4,-19.69999999999999,-5.199999999999989,-29c-4.699999999999989,-38.19999999999999,1.1000000000000227,-67.9,14.600000000000023,-75.8c3,-1.7999999999999972,6.899999999999977,-2.5999999999999943,11.5,-2.5999999999999943v-22.299999999999997c-8.399999999999977,0,-16,1.7999999999999972,-22.600000000000023,5.599999999999994c-28.100000000000023,16.200000000000003,-34.39999999999998,66.70000000000002,-19.899999999999977,130.1c-62.19999999999999,19.19999999999999,-102.69999999999999,49.89999999999998,-102.69999999999999,82.30000000000001c0,32.5,40.69999999999999,63.30000000000001,103.09999999999997,82.39999999999998c-14.399999999999977,63.60000000000002,-8,114.19999999999999,20.19999999999999,130.39999999999998c6.5,3.7999999999999545,14.100000000000023,5.600000000000023,22.5,5.600000000000023c27.5,0,63.5,-19.600000000000023,99.90000000000003,-53.60000000000002c36.39999999999998,33.80000000000001,72.39999999999998,53.200000000000045,99.89999999999998,53.200000000000045c8.399999999999977,0,16,-1.7999999999999545,22.600000000000023,-5.600000000000023c28.100000000000023,-16.19999999999999,34.39999999999998,-66.69999999999999,19.899999999999977,-130.10000000000002c62,-19.100000000000023,102.5,-49.89999999999998,102.5,-82.30000000000001ZM536.0999999999999,229.8c-3.7000000000000455,12.900000000000006,-8.299999999999955,26.19999999999999,-13.5,39.5c-4.100000000000023,-8,-8.399999999999977,-16,-13.100000000000023,-24c-4.600000000000023,-8,-9.5,-15.800000000000011,-14.399999999999977,-23.400000000000006c14.199999999999989,2.0999999999999943,27.899999999999977,4.699999999999989,41,7.900000000000006ZM490.2999999999999,336.3c-7.800000000000011,13.5,-15.800000000000011,26.30000000000001,-24.100000000000023,38.19999999999999c-14.899999999999977,1.3000000000000114,-30,2,-45.19999999999999,2c-15.100000000000023,0,-30.19999999999999,-0.6999999999999886,-45,-1.8999999999999773c-8.300000000000011,-11.899999999999977,-16.399999999999977,-24.600000000000023,-24.19999999999999,-38c-7.600000000000023,-13.100000000000023,-14.5,-26.399999999999977,-20.80000000000001,-39.80000000000001c6.199999999999989,-13.399999999999977,13.199999999999989,-26.80000000000001,20.69999999999999,-39.89999999999998c7.800000000000011,-13.5,15.800000000000011,-26.30000000000001,24.100000000000023,-38.19999999999999c14.899999999999977,-1.3000000000000114,30,-2,45.19999999999999,-2c15.100000000000023,0,30.19999999999999,0.6999999999999886,45,1.9000000000000057c8.300000000000011,11.900000000000006,16.399999999999977,24.599999999999994,24.19999999999999,37.99999999999997c7.600000000000023,13.100000000000023,14.5,26.399999999999977,20.80000000000001,39.80000000000001c-6.300000000000011,13.399999999999977,-13.199999999999989,26.80000000000001,-20.69999999999999,39.89999999999998ZM522.5999999999999,323.3c5.399999999999977,13.399999999999977,10,26.80000000000001,13.799999999999955,39.80000000000001c-13.100000000000023,3.1999999999999886,-26.899999999999977,5.899999999999977,-41.19999999999999,8c4.899999999999977,-7.699999999999989,9.800000000000011,-15.600000000000023,14.399999999999977,-23.69999999999999c4.599999999999966,-8,8.900000000000034,-16.100000000000023,13.000000000000057,-24.100000000000023ZM421.2,430c-9.300000000000011,-9.600000000000023,-18.600000000000023,-20.30000000000001,-27.80000000000001,-32c9,0.39999999999997726,18.19999999999999,0.6999999999999886,27.5,0.6999999999999886c9.399999999999977,0,18.69999999999999,-0.19999999999998863,27.80000000000001,-0.6999999999999886c-9,11.699999999999989,-18.30000000000001,22.399999999999977,-27.5,32ZM346.79999999999995,371.1c-14.199999999999989,-2.1000000000000227,-27.899999999999977,-4.699999999999989,-41,-7.899999999999977c3.6999999999999886,-12.899999999999977,8.300000000000011,-26.19999999999999,13.5,-39.5c4.100000000000023,8,8.399999999999977,16,13.100000000000023,24c4.699999999999989,8,9.5,15.800000000000011,14.399999999999977,23.399999999999977ZM420.7,163c9.300000000000011,9.599999999999994,18.600000000000023,20.30000000000001,27.80000000000001,32c-9,-0.4000000000000057,-18.19999999999999,-0.6999999999999886,-27.5,-0.6999999999999886c-9.399999999999977,0,-18.69999999999999,0.19999999999998863,-27.80000000000001,0.6999999999999886c9,-11.699999999999989,18.30000000000001,-22.400000000000006,27.5,-32ZM346.7,221.9c-4.899999999999977,7.699999999999989,-9.800000000000011,15.599999999999994,-14.399999999999977,23.69999999999999c-4.600000000000023,8,-8.899999999999977,16.00000000000003,-13,24.00000000000003c-5.399999999999977,-13.399999999999977,-10,-26.80000000000001,-13.800000000000011,-39.80000000000001c13.100000000000023,-3.0999999999999943,26.899999999999977,-5.800000000000011,41.19999999999999,-7.900000000000006ZM256.2,347.1c-35.400000000000006,-15.100000000000023,-58.30000000000001,-34.89999999999998,-58.30000000000001,-50.60000000000002c0,-15.699999999999989,22.900000000000006,-35.60000000000002,58.30000000000001,-50.599999999999994c8.600000000000023,-3.6999999999999886,18,-7,27.69999999999999,-10.099999999999994c5.699999999999989,19.599999999999994,13.199999999999989,40,22.5,60.89999999999998c-9.199999999999989,20.80000000000001,-16.600000000000023,41.10000000000002,-22.19999999999999,60.60000000000002c-9.899999999999977,-3.1000000000000227,-19.30000000000001,-6.5,-28,-10.199999999999989ZM310,490c-13.600000000000023,-7.800000000000011,-19.5,-37.5,-14.899999999999977,-75.69999999999999c1.1000000000000227,-9.399999999999977,2.8999999999999773,-19.30000000000001,5.100000000000023,-29.399999999999977c19.600000000000023,4.800000000000011,41,8.5,63.5,10.899999999999977c13.5,18.5,27.5,35.30000000000001,41.60000000000002,50c-32.60000000000002,30.30000000000001,-63.19999999999999,46.89999999999998,-84,46.89999999999998c-4.5,-0.10000000000002274,-8.300000000000011,-1,-11.300000000000011,-2.6999999999999886ZM547.2,413.8c4.7000000000000455,38.19999999999999,-1.1000000000000227,67.90000000000003,-14.600000000000023,75.80000000000001c-3,1.8000000000000114,-6.899999999999977,2.6000000000000227,-11.5,2.6000000000000227c-20.69999999999999,0,-51.39999999999998,-16.5,-84,-46.60000000000002c14,-14.699999999999989,28,-31.399999999999977,41.30000000000001,-49.89999999999998c22.600000000000023,-2.3999999999999773,44.00000000000006,-6.100000000000023,63.599999999999966,-11c2.2999999999999545,10.100000000000023,4.100000000000023,19.80000000000001,5.2000000000000455,29.100000000000023ZM585.7,347.1c-8.600000000000023,3.6999999999999886,-18,7,-27.700000000000045,10.100000000000023c-5.7000000000000455,-19.600000000000023,-13.200000000000045,-40,-22.5,-60.89999999999998c9.200000000000045,-20.80000000000001,16.600000000000023,-41.099999999999994,22.200000000000045,-60.599999999999994c9.899999999999977,3.0999999999999943,19.299999999999955,6.5,28.100000000000023,10.199999999999989c35.39999999999998,15.099999999999994,58.299999999999955,34.900000000000006,58.299999999999955,50.599999999999994c-0.10000000000002274,15.699999999999989,-23,35.60000000000002,-58.39999999999998,50.60000000000002ZM320.8,78.4Z" style="fill:#1c86ff;"/>
        <circle cx="420.9" cy="296.5" r="49.1" style="stroke:none;fill:#1c86ff;"/>
        <path d="M520.5 78.1z"/>
    </g>
</svg>